<svg width="18" height="18" fill="none" xmlns="http://www.w3.org/2000/svg">
    <path d="M9.102 1.688c-4.113-.056-7.47 3.302-7.414 7.414.054 3.944 3.266 7.156 7.21 7.21 4.113.057 7.47-3.3 7.414-7.413-.054-3.945-3.266-7.156-7.21-7.211zm-.59 6.766 1.812-2.074a.563.563 0 0 1 .847.74L9.36 9.195a.563.563 0 1 1-.847-.74zm-1.366 3.194a.563.563 0 0 1-.796 0L4.665 9.961a.563.563 0 1 1 .795-.796l1.688 1.688a.563.563 0 0 1-.002.795zM13.36 7.12l-3.933 4.5a.562.562 0 0 1-.405.193h-.019a.564.564 0 0 1-.398-.165L6.921 9.96a.563.563 0 0 1 .796-.795l1.047 1.049a.281.281 0 0 0 .411-.014l3.34-3.82a.563.563 0 0 1 .847.74z" fill="#27AE60"/>
</svg>
