<svg xmlns="http://www.w3.org/2000/svg" width="18" height="18" fill="none" viewBox="0 0 18 18">
    <path fill="#050404" fill-rule="evenodd" d="M9.005 16.32c4.04 0 7.315-3.275 7.315-7.315 0-4.04-3.275-7.315-7.315-7.315-4.04 0-7.315 3.275-7.315 7.315 0 4.04 3.275 7.315 7.315 7.315zm2.16-6.344c.56.467 1.328 1.107 1.519 2.652.016.13 0 .263-.043.389-.045.125-.117.24-.213.338-.104.106-.23.19-.373.248-.141.058-.295.087-.45.087h-4.83c-.155 0-.309-.03-.45-.087-.142-.058-.27-.142-.373-.248-.096-.098-.169-.213-.213-.338-.044-.126-.059-.258-.043-.39.19-1.537.954-2.173 1.512-2.637l.002-.002c.392-.325.58-.495.58-.798 0-.3-.188-.466-.578-.785-.565-.462-1.34-1.095-1.517-2.656-.014-.131.002-.264.047-.39.045-.125.118-.24.215-.338.103-.105.23-.188.37-.245.141-.057.294-.087.448-.086h4.83c.154 0 .306.029.447.086.14.057.267.14.37.245.097.097.17.213.215.338.046.126.062.259.047.39-.177 1.566-.954 2.203-1.521 2.669-.387.317-.573.482-.573.772 0 .293.187.462.574.786zm-3.876 2.75H11.1c.34 0 .417-.344.2-.586-.217-.24-.542-.436-.853-.626-.468-.283-.907-.55-.907-.918V8.547c0-.22.256-.41.57-.644.26-.193.558-.415.786-.707.084-.107.044-.256-.14-.256H7.633c-.215 0-.224.15-.139.257.23.289.523.51.777.7.314.238.569.43.569.65v2.05c0 .4-.492.703-.995 1.014-.274.169-.55.34-.754.529-.24.224-.143.586.198.586z" clip-rule="evenodd"/>
</svg>
