<svg xmlns="http://www.w3.org/2000/svg" width="18" height="18" fill="none" viewBox="0 0 18 18">
    <path fill="#FCC604" fill-rule="evenodd" d="M9.005 16.32c4.04 0 7.315-3.275 7.315-7.315 0-4.04-3.275-7.315-7.315-7.315-4.04 0-7.315 3.275-7.315 7.315 0 4.04 3.275 7.315 7.315 7.315zm4.36-7.618l.002.001c.096.042.178.11.235.199.057.088.088.19.088.296 0 .105-.03.208-.088.296-.057.088-.139.157-.235.199l-.003.001-7.119 2.964c-.05.021-.104.032-.158.032-.079 0-.155-.023-.22-.067-.055-.036-.1-.085-.13-.143-.031-.058-.047-.123-.047-.188v-1.907c0-.094.033-.185.092-.257.06-.073.142-.122.233-.14l3.883-.724c.015-.003.029-.011.039-.023.01-.012.015-.027.015-.043 0-.016-.005-.031-.015-.043-.01-.012-.024-.02-.04-.023l-3.882-.725c-.091-.018-.174-.067-.233-.14-.06-.072-.092-.163-.092-.257V6.104c0-.069.017-.136.05-.197.032-.06.079-.112.136-.15.054-.036.116-.058.18-.065.065-.006.13.004.19.03l7.118 2.98z" clip-rule="evenodd"/>
</svg>
