<svg xmlns="http://www.w3.org/2000/svg" width="24" height="24" fill="none" viewBox="0 0 24 24">
    <path fill="#BDBDBD" d="M12.286 12c.989 0 1.955-.293 2.778-.843.822-.55 1.463-1.33 1.841-2.244.378-.913.478-1.919.285-2.888-.193-.97-.67-1.861-1.369-2.56-.699-.7-1.59-1.176-2.56-1.369-.97-.193-1.975-.094-2.889.285-.913.378-1.694 1.019-2.244 1.841-.549.822-.842 1.79-.842 2.778 0 1.326.527 2.598 1.464 3.536.938.937 2.21 1.464 3.536 1.464zm0 1.429c-3.1 0-9.286 1.914-9.286 5.714V22h18.571v-2.857c0-3.8-6.186-5.714-9.285-5.714z"/>
</svg>
