<svg xmlns="http://www.w3.org/2000/svg" width="24" height="24" fill="none" viewBox="0 0 24 24">
    <path fill="#050404" d="M12.614 2.21C12.438 2.075 12.222 2 12 2c-.222 0-.438.074-.614.21l-8.228 6.4c-.36.281-.653.64-.853 1.051-.201.411-.305.862-.305 1.32V20c0 .53.21 1.038.586 1.413C2.96 21.79 3.47 22 4 22h4c.53 0 1.04-.21 1.414-.586C9.79 21.04 10 20.53 10 20v-6h4v6c0 .53.21 1.04.586 1.414.375.375.884.586 1.414.586h4c.53 0 1.04-.21 1.414-.586C21.79 21.04 22 20.53 22 20v-9.02c0-.457-.104-.908-.305-1.319-.201-.41-.494-.77-.855-1.05l-8.226-6.4z"/>
</svg>
