<svg xmlns="http://www.w3.org/2000/svg" width="24" height="24" fill="none" viewBox="0 0 24 24">
    <path fill="#050404" d="M9.76 5.083C8.253 4.365 6.15 4.013 3.332 4c-.265-.003-.526.074-.746.222-.181.123-.33.287-.432.48-.102.194-.155.409-.155.627v11.92c0 .806.573 1.414 1.333 1.414 2.961 0 5.931.276 7.71 1.958.025.023.055.038.088.044.034.006.067.002.098-.011.031-.014.057-.036.076-.064.018-.028.028-.06.028-.094V6.45c0-.095-.02-.189-.06-.275-.04-.086-.096-.163-.168-.225-.407-.349-.86-.64-1.346-.868zM21.412 4.221c-.22-.148-.481-.225-.747-.22-2.817.012-4.92.362-6.426 1.082-.485.227-.938.518-1.346.866-.071.062-.129.14-.168.226-.039.086-.06.18-.06.274v14.046c0 .032.01.064.028.09.018.027.043.049.073.061.03.013.063.016.094.01.032-.006.061-.021.084-.044 1.07-1.062 2.947-1.95 7.723-1.95.353 0 .693-.14.943-.39s.39-.59.39-.943v-12c0-.218-.053-.434-.155-.627-.103-.194-.252-.359-.433-.481z"/>
</svg>
