<svg width="24" height="24" fill="none" xmlns="http://www.w3.org/2000/svg">
    <path d="M21 12c0-4.969-4.031-9-9-9s-9 4.031-9 9 4.031 9 9 9 9-4.031 9-9z" stroke="#FCC604" stroke-width="1.5" stroke-miterlimit="10"/>
    <path d="M17.119 14.672c-.766-.907-1.306-1.288-1.306-3.788 0-2.29-1.209-3.104-2.203-3.5a.534.534 0 0 1-.297-.313C13.139 6.497 12.65 6 12 6c-.65 0-1.14.497-1.313 1.072a.531.531 0 0 1-.296.313c-.996.396-2.203 1.21-2.203 3.5 0 2.5-.541 2.88-1.307 3.787-.317.375-.03 1.079.525 1.079h9.188c.551-.001.84-.704.525-1.08zM10.324 16.5a.19.19 0 0 0-.18.13.19.19 0 0 0-.008.077C10.242 17.585 11.021 18 12 18c.969 0 1.74-.429 1.859-1.29a.187.187 0 0 0-.188-.21h-3.347z" fill="#FCC604"/>
</svg>
