<svg xmlns="http://www.w3.org/2000/svg" width="24" height="24" fill="none" viewBox="0 0 24 24">
    <path stroke="#050404" stroke-miterlimit="10" stroke-width="1.5" d="M21 12c0-4.969-4.031-9-9-9s-9 4.031-9 9 4.031 9 9 9 9-4.031 9-9z"/>
    <path fill="#050404" d="M17.119 14.672c-.766-.907-1.306-1.288-1.306-3.788 0-2.29-1.209-3.104-2.203-3.5-.069-.028-.13-.071-.182-.125-.051-.054-.09-.118-.116-.188C13.14 6.497 12.65 6 12 6s-1.14.497-1.313 1.072c-.024.07-.064.134-.115.188-.05.053-.113.096-.181.125-.996.396-2.203 1.21-2.203 3.5 0 2.5-.541 2.88-1.307 3.787-.317.375-.03 1.079.525 1.079h9.188c.551-.001.84-.704.525-1.08zM10.324 16.5c-.027 0-.053.005-.077.016-.024.01-.046.026-.063.046-.018.02-.031.042-.04.067-.008.025-.01.052-.008.078.106.878.885 1.293 1.864 1.293.969 0 1.741-.429 1.86-1.29.002-.026 0-.053-.008-.079-.008-.025-.021-.049-.04-.068-.017-.02-.039-.036-.063-.047-.024-.01-.05-.016-.077-.016h-3.348z"/>
</svg>
