<svg xmlns="http://www.w3.org/2000/svg" width="57" height="24" fill="none" viewBox="0 0 57 24">
    <path fill="#BDBDBD" d="M15.098 6.147v-.136c-.152-2.98-2.59-5.347-5.567-5.347-3.08 0-5.568 2.503-5.568 5.603v.323c0 .051 0 .085.017.136.237 2.879 2.623 5.127 5.55 5.127 2.979 0 5.416-2.35 5.551-5.314v-.136-.12c.017-.033.017-.085.017-.136zm-5.77-2.605c-.593-.017-1.185-.068-1.727-.188.068-.204.153-.391.254-.579.406-.817.93-1.311 1.472-1.413v2.18zm.406-2.18c.541.102 1.066.579 1.472 1.413.085.188.17.375.254.58-.542.119-1.134.17-1.726.187v-2.18zm-1.473.153c-.287.273-.541.63-.761 1.09-.102.204-.203.426-.288.664-.44-.119-.846-.255-1.218-.443-.085-.034-.153-.085-.22-.119.795-.834 1.861-1.413 3.063-1.584-.203.086-.39.222-.576.392zm5.026 1.192c-.067.034-.152.085-.22.12-.355.17-.778.323-1.218.442-.085-.238-.186-.46-.288-.664-.22-.443-.49-.817-.761-1.09-.186-.17-.373-.306-.559-.392 1.185.154 2.251.733 3.046 1.584 0-.017 0-.017 0 0zm-3.96 6.506v2.18c-.541-.102-1.066-.58-1.472-1.414-.084-.187-.17-.374-.254-.579.542-.102 1.134-.17 1.726-.187zm.407 0c.592.017 1.184.068 1.726.187-.068.205-.153.392-.254.58-.406.817-.93 1.31-1.472 1.413v-2.18zm-3.859.783c.034-.017.085-.034.119-.068.355-.17.778-.323 1.218-.443.085.239.186.46.288.665.22.442.49.817.761 1.09.068.05.119.119.186.153-.981-.205-1.878-.699-2.572-1.397zm4.722 1.414c.067-.051.118-.102.186-.153.287-.273.541-.63.761-1.09.102-.205.203-.426.288-.665.44.12.846.256 1.218.443.034.017.085.034.119.068-.677.681-1.574 1.175-2.572 1.397z"/>
    <path fill="#FCFDFD" d="M6.173 7.107c.102 0 .187-.017.254-.068.068-.034.102-.12.102-.222 0-.102-.034-.255-.119-.442-.067-.154-.169-.341-.304-.58-.068-.102-.034-.255.084-.306l.271-.153c.102-.068.237-.017.305.085.118.187.203.357.287.545.102.238.187.443.22.596.068.221.136.358.203.443.068.085.153.119.237.119.102 0 .187.034.237.102.051.068.085.136.085.239 0 .102-.034.187-.102.255-.067.068-.152.102-.27.102-.119 0-.254-.017-.373-.068-.067-.017-.135-.051-.186-.102-.084-.051-.186-.051-.27.017-.034.034-.085.051-.136.085-.118.051-.27.085-.457.085-.068 0-.152 0-.237-.017-.084-.017-.186-.017-.27-.034h-.018c-.118-.034-.186-.136-.169-.255l.034-.222c.017-.119.135-.204.254-.187.017 0 .05 0 .068.017.101-.034.203-.034.27-.034z"/>
    <path fill="#FCFDFD" d="M7.663 7.516l.017-.238c0-.085.05-.154.118-.188.017 0 .034-.017.05-.034.052-.034.102-.102.17-.187.068-.102.135-.221.22-.409.135-.255.27-.46.423-.579.152-.119.305-.187.474-.187.186 0 .338.068.44.204.101.136.203.324.304.58.068.17.153.323.237.442.085.12.187.187.305.187.102 0 .186.034.237.103.05.068.085.136.085.238 0 .102-.034.187-.102.255-.068.069-.152.103-.27.103-.153 0-.305-.034-.424-.12-.084-.05-.186-.034-.254.034-.034.018-.05.052-.084.069-.085.05-.186.085-.305.085-.068 0-.152-.017-.254-.034-.101-.034-.203-.068-.304-.154-.051-.034-.085-.068-.136-.119-.084-.085-.237-.085-.321 0-.085.085-.153.136-.22.17-.017.018-.051.018-.068.035-.186.034-.338-.086-.338-.256zM8.796 6.7c-.033.068-.016.153.034.221.051.051.102.12.17.17.101.086.186.12.287.12.068 0 .119-.017.136-.069.033-.05.033-.119 0-.187-.085-.221-.153-.375-.187-.46-.05-.085-.084-.136-.135-.136-.068 0-.118.051-.186.136-.05.068-.085.137-.119.205z"/>
    <path fill="#FCFDFD" d="M10.387 7.55l.017-.221c0-.12.085-.205.203-.205.203-.017.406-.05.626-.119.136-.034.271-.085.406-.153.187-.085.17-.375-.033-.426-.136-.034-.288-.051-.424-.051-.084 0-.152 0-.22.017-.118.017-.236-.068-.253-.187l-.051-.256c-.017-.119.068-.238.186-.255h.034c.085-.017.17-.017.27-.017.22 0 .407.034.56.085.151.051.304.12.405.187.119.068.22.136.322.188.101.05.186.085.287.085h.102c.017 0 .017 0 .034.017l.05.408c.018.103-.05.205-.152.239-.05.017-.118.051-.169.085-.118.068-.237.153-.355.256-.136.102-.271.187-.44.289-.17.102-.373.17-.593.238-.169.052-.355.069-.558.086-.152-.034-.27-.154-.254-.29zM13.112 7.584l-.068-1.244c0-.136.102-.238.22-.238h.27c.12 0 .22.102.22.221l.068 1.244c0 .136-.101.238-.22.238h-.27c-.102 0-.203-.102-.22-.221zM13.23 5.983c-.067.017-.135-.034-.152-.102l-.034-.136c.034 0 .068-.017.085-.017.034 0 .05-.017.067-.017-.05-.034-.084-.068-.101-.12-.034-.05-.034-.102-.034-.17 0-.12.034-.221.119-.272.084-.051.169-.086.27-.086.068 0 .136.018.203.035l-.034.238c-.05-.017-.101-.017-.152-.017-.101 0-.152.034-.152.12 0 .05.017.101.068.135.033.034.084.069.118.086.05-.017.085-.035.118-.035.068-.017.136.018.152.086.017.068-.016.136-.084.153-.068.017-.135.051-.22.068-.068 0-.152.034-.237.051z"/>
    <path fill="#BDBDBD" d="M.945 2.617l1.04 9.268c0 .064.062.128.157.16l2.456.541c.22.064.19.382-.031.382L1.449 13c-.095 0-.158-.064-.19-.16L0 3.127c0-.095.063-.159.189-.223l.567-.445c.094 0 .189.063.189.159z"/>
    <path fill="#BDBDBD" d="M4.756 11.98l-2.142-.509c-.063-.032-.126-.063-.157-.159L1.29.706 1.26.228c-.032-.127.094-.255.22-.223l.662.16h.063l2.456.54c.22.064.19.383-.031.383H2.362l1.008 9.746c0 .064.063.128.126.128l1.417.605c.19.127.063.477-.157.414zM18.016 2.617l-1.008 9.268c0 .064-.063.128-.157.16l-2.457.54c-.22.065-.189.383.032.383l3.118.032c.094 0 .157-.064.189-.16l1.26-9.682c0-.095-.063-.16-.19-.223l-.566-.446c-.126-.032-.19.032-.22.128z"/>
    <path fill="#BDBDBD" d="M14.205 11.98l2.141-.509c.063-.032.126-.063.158-.159L17.7.674l.063-.478c0-.095-.126-.223-.284-.191l-.661.16h-.032-.031l-2.457.54c-.22.064-.189.383.032.383h2.267l-1.007 9.746c0 .064-.063.128-.127.128l-1.417.605c-.157.127-.063.478.158.414zM23.434 1.913h1.473l2.08 9.145h-.982l-.491-2.113h-2.686l-.492 2.113h-.982l2.08-9.145zm.722 1.1l-1.155 5.093h2.31l-1.155-5.093zM29.905 11.087h-.982V1.913h.982v4.08h2.773v-4.08h.982v9.145h-.982V6.862h-2.773v4.225zM37.473 11.087h-.982V1.913h1.473l1.589 6.048 1.617-6.048h1.474v9.145h-.983V3.505l-1.646 6.164h-.925l-1.646-6.164v7.582h.029zM49.836 11.087h-.433l-.375-.897c-.203.347-.463.607-.78.81-.318.203-.665.29-1.07.29-1.357 0-2.021-.666-2.021-1.968V7.904c0-1.303.664-1.968 2.022-1.968h1.617V3.62c0-.347-.115-.607-.317-.78-.203-.175-.52-.29-.954-.29-.837 0-1.242.347-1.242 1.07v.84h-.982v-.782c0-.636.173-1.128.549-1.447.375-.347.924-.52 1.675-.52.752 0 1.33.173 1.705.52.375.348.577.84.577 1.447v7.409h.03zm-.982-4.312h-1.617c-.405 0-.665.087-.81.29-.144.202-.23.462-.23.839v1.418c0 .347.086.636.23.839.145.202.434.29.81.29.404 0 .75-.146 1.097-.464.347-.318.52-.608.52-.897V6.775zM54.747 11.087h-2.253V1.913h2.253c.722 0 1.3.174 1.675.521.376.347.578.84.578 1.447v5.21c0 .636-.173 1.128-.549 1.446-.404.376-.953.55-1.704.55zm1.27-1.997V3.881c0-.29-.115-.55-.317-.781-.231-.232-.52-.348-.924-.348h-1.271v7.467h1.27c.405 0 .694-.116.925-.319.202-.231.318-.492.318-.81zM16.555 19.12v-2.233h1.118c.936 0 1.3.412 1.3 1.125 0 .681-.364 1.109-1.3 1.109h-1.118zm2.99-1.108c0-.911-.588-1.592-1.872-1.592H16v5.536h.555v-2.36h1.118c1.3 0 1.871-.69 1.871-1.584zM21.03 19.54c0-1.085.611-1.41 1.333-1.41h.15v-.578c-.745 0-1.245.317-1.482.848v-.768h-.555v4.324h.555v-2.415zM27.424 19.794c0-1.378-.944-2.226-2.165-2.226-1.213 0-2.164.848-2.164 2.226 0 1.37.927 2.226 2.148 2.226s2.18-.856 2.18-2.226zm-3.767 0c0-1.188.77-1.742 1.594-1.742.825 0 1.602.554 1.602 1.742s-.793 1.743-1.61 1.743c-.824 0-1.585-.555-1.585-1.743zM28.753 16.816c.222 0 .396-.174.396-.412S28.975 16 28.753 16c-.222 0-.405.166-.405.404 0 .238.183.412.405.412zm-.286.816v5.322c0 .42-.166.57-.578.57h-.302V24h.389c.698 0 1.046-.325 1.046-1.022v-5.346h-.555zM32.141 18.044c.801 0 1.53.506 1.507 1.512h-3.045c.064-1.006.753-1.512 1.538-1.512zm2.007 2.542h-.587c-.159.578-.658.966-1.396.966-.809 0-1.514-.53-1.562-1.544h3.592c.016-.15.016-.261.016-.436 0-1.1-.777-2.004-2.046-2.004-1.245 0-2.125.848-2.125 2.226 0 1.37.896 2.226 2.125 2.226 1.087 0 1.784-.618 1.983-1.434zM34.973 19.794c0 1.37.88 2.226 2.1 2.226 1.087 0 1.793-.61 1.991-1.473h-.595c-.15.633-.666 1.005-1.395 1.005-.849 0-1.538-.586-1.538-1.758 0-1.172.69-1.75 1.538-1.75.73 0 1.253.38 1.395.998h.595c-.198-.896-.904-1.474-1.99-1.474-1.221 0-2.101.856-2.101 2.226zM40.248 20.784c0 .864.404 1.172 1.157 1.172H42v-.475h-.508c-.499 0-.681-.166-.681-.697V18.1H42v-.467h-1.19v-1.085h-.562v1.085h-.603v.467h.603v2.685z"/>
</svg>
