<svg xmlns="http://www.w3.org/2000/svg" width="32" height="32" fill="none" viewBox="0 0 32 32">
    <path fill="#FCC604" d="M16 30c7.732 0 14-6.268 14-14S23.732 2 16 2 2 8.268 2 16s6.268 14 14 14zm-1-19c0-.265.105-.52.293-.707.187-.188.442-.293.707-.293.265 0 .52.105.707.293.188.187.293.442.293.707v4h4c.265 0 .52.105.707.293.188.187.293.442.293.707 0 .265-.105.52-.293.707-.187.188-.442.293-.707.293h-4v4c0 .265-.105.52-.293.707-.187.188-.442.293-.707.293-.265 0-.52-.105-.707-.293C15.105 21.52 15 21.265 15 21v-4h-4c-.265 0-.52-.105-.707-.293C10.105 16.52 10 16.265 10 16c0-.265.105-.52.293-.707.187-.188.442-.293.707-.293h4v-4z"/>
</svg>
